<svg width="48" height="48" viewBox="0 0 48 48" fill="none" xmlns="http://www.w3.org/2000/svg">
<rect width="48" height="48" rx="24" fill="#7C0F4D"/>
<path d="M13.2002 21.7626H34.7904H13.2002ZM19.6205 16.3797C19.6205 15.2181 20.0819 14.1041 20.9033 13.2828C21.7246 12.4614 22.8386 12 24.0002 12C25.1618 12 26.2758 12.4614 27.0971 13.2828C27.9185 14.1041 28.3799 15.2181 28.3799 16.3797H19.6205ZM19.6205 16.3797C19.6205 15.2181 20.0819 14.1041 20.9033 13.2828C21.7246 12.4614 22.8386 12 24.0002 12C25.1618 12 26.2758 12.4614 27.0971 13.2828C27.9185 14.1041 28.3799 15.2181 28.3799 16.3797H19.6205ZM13.21 16.5216H34.8002V34.0942H13.2002L13.21 16.5216Z" stroke="white" stroke-width="1.89511" stroke-linecap="round" stroke-linejoin="round"/>
</svg>
