<svg width="416" height="248" viewBox="0 0 416 248" fill="none" xmlns="http://www.w3.org/2000/svg">
<path d="M316.433 2.33203H188.781C185.715 2.33203 183.23 4.81842 183.23 7.88553V135.616C183.23 138.683 185.715 141.169 188.781 141.169H316.433C319.498 141.169 321.983 138.683 321.983 135.616V7.88553C321.983 4.81842 319.498 2.33203 316.433 2.33203Z" fill="#F7F4F8"/>
<path d="M252.607 71.7516L221.672 94.2432C218.719 90.178 216.596 85.5707 215.423 80.6842C214.25 75.7977 214.05 70.7279 214.836 65.7642C215.621 60.8006 217.376 56.0404 220 51.7554C222.624 47.4704 226.066 43.7446 230.129 40.7908C236.611 35.9418 244.514 33.3742 252.607 33.488V71.7516Z" fill="white"/>
<path d="M252.607 71.7514V33.4878C257.672 33.4196 262.701 34.3589 267.401 36.2514C272.1 38.1439 276.378 40.9517 279.984 44.5119C283.59 48.0721 286.454 52.3137 288.408 56.9904C290.362 61.6671 291.369 66.6858 291.369 71.7549C291.369 76.824 290.362 81.8427 288.408 86.5194C286.454 91.1961 283.59 95.4377 279.984 98.9979C276.378 102.558 272.1 105.366 267.401 107.258C262.701 109.151 257.672 110.09 252.607 110.022C246.555 110.118 240.572 108.73 235.18 105.979C229.787 103.229 225.15 99.1996 221.672 94.2431L252.607 71.7514Z" fill="#564F4E"/>
<path d="M252.607 99.9626C268.178 99.9626 280.801 87.3317 280.801 71.7508C280.801 56.1699 268.178 43.5391 252.607 43.5391C237.035 43.5391 224.412 56.1699 224.412 71.7508C224.412 87.3317 237.035 99.9626 252.607 99.9626Z" fill="#F7F4F8"/>
<path d="M281.633 46.3922L295.827 32.0156H304.874" stroke="#263238" stroke-width="0.75" stroke-miterlimit="10" stroke-linecap="round"/>
<path d="M306.954 34.2432C308.104 34.2432 309.036 33.3108 309.036 32.1607C309.036 31.0105 308.104 30.0781 306.954 30.0781C305.805 30.0781 304.873 31.0105 304.873 32.1607C304.873 33.3108 305.805 34.2432 306.954 34.2432Z" fill="#FF7F66"/>
<path d="M214.339 72.7715L208.011 76.7978H198.965" stroke="#263238" stroke-width="0.75" stroke-miterlimit="10" stroke-linecap="round"/>
<path d="M196.884 78.7276C198.034 78.7276 198.965 77.7952 198.965 76.6451C198.965 75.4949 198.034 74.5625 196.884 74.5625C195.735 74.5625 194.803 75.4949 194.803 76.6451C194.803 77.7952 195.735 78.7276 196.884 78.7276Z" fill="#FF7F66"/>
<path d="M259.434 109.562L265.025 118.983H274.072" stroke="#263238" stroke-width="0.75" stroke-miterlimit="10" stroke-linecap="round"/>
<path d="M276.154 121.22C277.303 121.22 278.235 120.287 278.235 119.137C278.235 117.987 277.303 117.055 276.154 117.055C275.004 117.055 274.072 117.987 274.072 119.137C274.072 120.287 275.004 121.22 276.154 121.22Z" fill="#FF7F66"/>
<path d="M197.341 18.2784C198.491 18.2784 199.422 17.346 199.422 16.1958C199.422 15.0457 198.491 14.1133 197.341 14.1133C196.192 14.1133 195.26 15.0457 195.26 16.1958C195.26 17.346 196.192 18.2784 197.341 18.2784Z" fill="#FF7F66"/>
<path d="M204.972 18.2784C206.121 18.2784 207.053 17.346 207.053 16.1958C207.053 15.0457 206.121 14.1133 204.972 14.1133C203.822 14.1133 202.891 15.0457 202.891 16.1958C202.891 17.346 203.822 18.2784 204.972 18.2784Z" fill="#FF7F66"/>
<path d="M212.605 18.2784C213.754 18.2784 214.686 17.346 214.686 16.1958C214.686 15.0457 213.754 14.1133 212.605 14.1133C211.455 14.1133 210.523 15.0457 210.523 16.1958C210.523 17.346 211.455 18.2784 212.605 18.2784Z" fill="#FF7F66"/>
<path d="M162.599 0H34.9466C31.8813 0 29.3965 2.48638 29.3965 5.55349V133.284C29.3965 136.351 31.8813 138.837 34.9466 138.837H162.599C165.664 138.837 168.149 136.351 168.149 133.284V5.55349C168.149 2.48638 165.664 0 162.599 0Z" fill="#F7F4F8"/>
<path d="M77.6124 38.0625H62.3496V115.811H77.6124V38.0625Z" fill="#564F4E"/>
<path d="M98.4248 82.4902H83.1621V115.811H98.4248V82.4902Z" fill="white"/>
<path d="M120.626 59.582H105.363V115.811H120.626V59.582Z" fill="#564F4E"/>
<path d="M141.439 47.7812H126.176V115.812H141.439V47.7812Z" fill="white"/>
<path d="M51.5961 29.3848L50.9023 116.158L149.416 115.464" stroke="#263238" stroke-width="0.75" stroke-miterlimit="10" stroke-linecap="round"/>
<path d="M19.2315 41.0039C19.2315 41.0039 1.44351 59.4623 0.604056 66.4111C-0.235395 73.3599 9.12344 84.1962 9.12344 84.1962L19.2315 41.0039Z" fill="#E05629"/>
<path d="M27.2734 232.259C27.2734 232.259 27.8978 242.047 29.7918 242.186C30.0485 242.186 39.3934 242.186 39.3934 242.186L51.34 242.103C51.34 242.103 51.2498 239.229 47.7602 238.632C44.2706 238.035 38.4291 235.591 36.3062 230.996C34.0654 226.123 27.2734 232.259 27.2734 232.259Z" fill="#5C0C40"/>
<path d="M0.693359 232.336C0.693359 232.336 1.32468 242.124 3.21865 242.255C3.4684 242.255 12.8134 242.255 12.8134 242.255L24.753 242.158C24.753 242.158 24.6697 239.284 21.1801 238.687C17.6905 238.09 11.8421 235.647 9.71919 231.051C7.47834 226.185 0.693359 232.336 0.693359 232.336Z" fill="#5C0C40"/>
<path d="M40.2389 127.02C40.2389 127.02 37.1656 147.005 25.5936 182.492C14.0217 217.979 12.4885 233.341 12.4885 233.341L0.000808384 233.015C0.000808384 233.015 -0.186507 194.259 5.14158 176.418C10.4697 158.577 6.15447 112.164 6.15447 112.164L40.2389 127.02Z" fill="#7CB25D"/>
<path d="M46.3096 113.137C46.3224 135.569 44.7809 157.976 41.6961 180.195C36.5692 217.168 38.3661 232.856 38.3661 232.856L25.8784 233.294C25.8784 233.294 18.3511 196.335 20.4462 177.835C22.5414 159.335 10.123 114.386 10.123 114.386L46.3096 113.137Z" fill="#9AD678"/>
<path d="M22.0215 42.7458L28.6747 47.0914L38.2694 45.2796C38.1376 44.5021 37.4993 41.2949 36.8818 38.3793C36.8472 38.2127 36.8125 38.0392 36.7847 37.8726C36.2852 35.3943 35.8481 33.2701 35.8481 33.2701L26.9056 29.3202L23.5894 27.8555C23.5894 27.9041 23.86 30.6322 23.8946 30.9932C24.3159 35.0074 23.6697 39.0618 22.0215 42.7458Z" fill="#FFAE73"/>
<path d="M35.7984 40.5103C35.618 40.434 24.2334 37.1019 22.9985 37.5114C21.7636 37.921 21.0352 40.2882 21.0352 40.2882L39.6488 44.4533C39.6488 44.4533 38.1572 41.5099 35.7984 40.5103Z" fill="#E05629"/>
<path d="M5.34311 116.94C7.28564 125.735 39.3721 126.707 47.6625 118.703C48.5991 117.787 48.6407 113.552 48.273 107.839C47.5793 96.6834 45.2899 79.9049 45.1858 71.3247C45.0903 67.2188 44.626 63.1297 43.7983 59.107C42.7923 54.1323 41.4053 49.2424 39.6496 44.4805C39.6496 44.4805 23.9706 39.4477 21.036 40.3154C6.93876 44.5014 3.39364 108.144 5.34311 116.94Z" fill="url(#paint0_linear_264_6242)"/>
<path d="M48.2382 107.84C47.5445 96.6844 45.255 79.9059 45.151 71.3258C45.0555 67.2198 44.5911 63.1308 43.7635 59.1081L34.3283 57.4629C34.3283 57.4629 25.1845 95.1503 48.2382 107.84Z" fill="#E05629"/>
<path d="M43.0969 92.297C42.92 92.7427 42.8919 93.2337 43.017 93.6966C43.142 94.1596 43.4135 94.5696 43.7907 94.8654C45.1435 95.8928 46.0177 97.5658 45.7124 98.7876C45.4071 100.009 42.4517 102.009 41.425 101.689C40.3982 101.37 38.303 99.7664 38.532 99.1208C38.7609 98.4752 37.1444 93.4701 39.6073 91.5333C42.0702 89.5966 43.0969 92.297 43.0969 92.297Z" fill="#FFAE73"/>
<path d="M32.4478 42.2402C32.4478 42.2402 41.647 43.941 48.994 54.7356C56.3409 65.5302 61.1833 73.5342 59.8375 77.4563C58.4916 81.3785 46.2259 94.8804 44.1099 94.8874C41.9939 94.8943 38.5598 93.3532 38.3586 89.8823C38.3586 89.8823 46.4617 76.3873 44.7551 74.4436C44.0197 73.6175 34.0157 65.5857 32.5241 69.4454C30.0543 75.8181 32.4478 42.2402 32.4478 42.2402Z" fill="url(#paint1_linear_264_6242)"/>
<path d="M24.533 31.1189C26.5102 34.451 33.8502 37.318 36.9097 38.3732C36.875 38.2066 36.8403 38.033 36.8125 37.8664C36.313 35.3882 35.8759 33.264 35.8759 33.264L26.9056 29.321C24.9215 29.3002 23.7143 29.7445 24.533 31.1189Z" fill="#FFA05E"/>
<path d="M38.187 35.9316C38.187 35.9316 23.0629 35.6075 23.4162 26.1855C23.7696 16.7635 22.0485 10.3771 31.7229 10.1838C41.3972 9.99055 43.1353 13.6638 43.7831 16.8363C44.4309 20.0088 42.1304 35.7707 38.187 35.9316Z" fill="#FFAE73"/>
<path d="M37.3842 24.3791C39.2965 25.5024 43.5235 15.8227 43.5235 15.8227L43.2055 18.3572C43.1119 19.1035 43.8447 19.6821 44.5489 19.418L46.1641 18.8123C46.6401 18.6338 46.9081 18.1267 46.7618 17.6398C45.8869 14.7277 43.7498 9.7386 40.4986 7.75573C35.9986 5.01125 23.4983 4 20.0478 7.75573C18.0013 9.00158 10.9612 21.8993 14.9997 29.4993C19.0382 37.0993 29.0152 40.3332 33.4989 41.0002C31.8654 38.276 29.477 31.3448 32.9913 25.4139C33.6925 22.302 35.4718 23.2558 37.3842 24.3791Z" fill="#8C001B"/>
<path d="M375.095 111.994C375.095 111.994 381.166 115.45 382.863 115.45C384.56 115.45 391.238 114.16 393.099 115.109C394.959 116.058 398.287 119.893 398.961 121.139C400.095 123.363 394.388 122.392 391.69 120.478C391.497 120.342 391.277 120.247 391.045 120.2C390.812 120.152 390.573 120.154 390.341 120.204C388.941 120.508 386.035 121.035 384.634 120.516C382.752 119.818 372.82 119.032 372.82 119.032L375.095 111.994Z" fill="#A76A52"/>
<path d="M381.957 236.804C381.957 236.804 382.61 247.357 384.655 247.506C384.922 247.506 395.032 247.506 395.032 247.506L407.891 247.431C407.891 247.431 407.81 244.331 404.052 243.671C400.294 243.011 393.994 240.371 391.719 235.402C389.295 230.181 381.957 236.804 381.957 236.804Z" fill="#F38A2A"/>
<path d="M328.888 64.9366C328.888 64.9366 335.181 109.709 345.609 113.714C350.753 115.694 373.485 120.181 380.207 120.634C380.207 120.634 381.853 119.291 381.453 113.848C381.453 113.848 357.638 105.104 354.251 100.342C349.219 93.2597 357.379 71.4185 351.057 64.7438C344.734 58.069 334.098 55.2508 328.888 64.9366Z" fill="#F7AD38"/>
<path d="M331.007 159.259C332.852 162.332 334.908 165.273 337.159 168.062C343.926 176.613 351.286 183.636 352.576 190.311C352.866 191.76 353.262 193.185 353.761 194.575C354.295 196.103 354.962 197.705 355.726 199.366C358.594 205.603 362.893 212.597 367.177 218.953C374.589 229.944 381.556 239.111 381.556 239.111L394.334 238.569C393.822 237.286 388.249 222.112 380.792 203.571C377.768 196.044 374.544 188.042 371.439 180.321C371.024 179.29 370.616 178.259 370.201 177.243L367.407 170.287C360.402 152.88 354.806 139.012 354.806 139.012C354.806 139.012 326.819 128.406 323.914 135.304C321.542 140.955 323.491 146.51 331.007 159.259Z" fill="#7C0F4D"/>
<path d="M352.361 206.648C352.361 206.648 343.467 212.366 344.334 214.221C344.453 214.465 349.367 223.269 349.367 223.269L355.697 234.475C355.697 234.475 358.365 232.888 357.105 229.283C355.845 225.679 355.081 218.9 358.313 214.45C361.708 209.83 352.361 206.648 352.361 206.648Z" fill="#F38A2A"/>
<path d="M356.711 216.691C356.711 216.691 351.16 211.789 350.174 208.192C350.174 208.192 373.069 180.751 378.035 174.596C378.265 174.314 378.206 174.01 377.902 173.669C374.151 169.434 332.504 160.839 327.057 152.362C325.434 149.876 324.246 147.132 323.543 144.248C322.784 141.393 322.695 138.4 323.284 135.504L364.879 134.303C364.879 134.303 399.515 155.884 403.421 170.598C407.327 185.313 356.711 216.691 356.711 216.691Z" fill="#7C0F4D"/>
<path d="M377.902 173.669C374.152 169.434 332.505 160.838 327.057 152.361C325.435 149.876 324.247 147.132 323.544 144.248V138.982L341.221 136.201C341.221 136.201 346.239 151.635 361.085 157.427C374.99 162.848 377.628 172.467 377.902 173.669Z" fill="#5C0C40"/>
<path d="M353.502 62.111C345.082 64.2914 331.133 56.4894 331.133 56.4894C331.133 56.4894 336.551 52.8479 338.545 44.8457C338.641 44.4378 338.738 44.0299 338.819 43.5997L343.177 42.6875L349.581 48.4278C349.392 50.6125 349.075 52.7843 348.632 54.9319C348.492 55.6736 348.329 56.4152 348.151 57.2384C350.217 58.5212 352.031 60.1728 353.502 62.111Z" fill="#A76A52"/>
<path d="M322.225 97.0125C323.426 113.24 321.84 137.906 323.211 142.178C324.39 145.886 337.835 143.662 343.223 142.445C345.209 141.993 347.618 141.34 350.101 140.569C357.039 138.426 364.591 135.377 365.399 133.078C365.43 132.994 365.455 132.907 365.473 132.819C365.548 132.504 365.548 132.177 365.473 131.862C365.206 130.705 364.161 129.444 364.043 126.574C363.902 123.363 363.924 119.588 363.806 115.524C363.806 115.064 363.806 114.567 363.739 114.115V113.692C363.628 109.161 363.391 104.399 363.116 99.675C362.938 96.7085 362.738 93.7419 362.501 90.9534C361.901 83.6927 361.086 77.2257 360.003 73.1541C358.247 66.4793 354.356 62.1556 350.82 58.974L348.263 56.7491C345.118 57.3583 341.861 56.9261 338.983 55.5179C335.678 53.9457 334.536 52.8184 333.966 53.2485C326.287 59.1371 320.802 77.1812 322.225 97.0125Z" fill="#FDBD57"/>
<path d="M350.078 140.568C357.016 138.425 364.568 135.377 365.376 133.078C365.407 132.993 365.431 132.906 365.45 132.818C365.45 132.499 365.45 132.18 365.45 131.862C365.183 130.705 364.138 129.444 364.02 126.574C363.879 123.362 363.901 119.587 363.783 115.523C363.783 115.063 363.783 114.567 363.716 114.114V113.691L335.692 77.9668C335.692 77.9668 316.836 117.214 350.078 140.568Z" fill="#F7AD38"/>
<path d="M349.583 48.4278C349.394 50.6125 349.077 52.7843 348.634 54.9319C342.356 52.8998 339.51 47.2263 338.562 44.8234C338.658 44.4155 338.754 44.0076 338.836 43.5775L343.179 42.6875L349.583 48.4278Z" fill="#875A49"/>
<path d="M350.428 52.0772C350.428 52.0772 336.738 49.7855 338.295 41.2789C339.851 32.7723 339.125 26.7502 347.93 27.8479C356.735 28.9455 357.84 32.5054 358.01 35.4719C358.181 38.4384 354.03 52.448 350.428 52.0772Z" fill="#A76A52"/>
<path d="M404.308 124.876L405.513 125.268L415.783 93.6402L414.578 93.2483L404.308 124.876Z" fill="#173560"/>
<path d="M370.646 124.554L405.511 125.297L405.555 123.213L370.691 122.47L370.646 124.554Z" fill="#173560"/>
<path d="M371.343 126.18C371.343 126.18 382.549 129.147 386.752 128.821C390.954 128.494 394.445 126.514 394.971 125.468C395.498 124.423 396.609 122.576 393.748 122.917C390.887 123.258 386.989 123.867 386.863 123.318C386.737 122.769 389.198 122.821 389.198 122.821C389.198 122.821 389.939 121.738 389.005 121.701C388.071 121.664 385.351 120.922 384.335 121.427C383.32 121.931 382.394 123.807 381.652 123.726C380.911 123.644 372.276 119.832 372.276 119.832L371.343 126.18Z" fill="#A76A52"/>
<path d="M331.667 66.7696C331.667 66.7696 332.987 111.965 342.911 117.105C347.803 119.626 369.905 126.605 376.531 127.784C376.531 127.784 378.31 126.635 378.517 121.184C378.517 121.184 355.808 109.859 352.969 104.756C348.744 97.1619 359.262 76.3516 353.71 69.0391C348.159 61.7265 337.915 57.7291 331.667 66.7696Z" fill="#FDBD57"/>
<path d="M338.561 44.8457C338.561 44.8457 338.398 41.9236 340.214 40.2698C340.214 40.2698 339.591 37.3403 340.747 36.8582C341.903 36.3762 342.141 38.8384 342.674 38.4528C344.394 37.1909 345.743 35.4902 346.58 33.5283C347.588 30.8287 356.86 34.0993 357.935 34.5888C359.01 35.0783 362.486 33.291 363.161 31.8374C362.14 31.032 361.2 30.1305 360.351 29.1452C359.484 27.9883 353.414 20.1714 344.927 22.3963C336.441 24.6212 335.285 28.6409 335.766 32.1118C336.248 35.5826 335.085 43.6739 338.561 44.8457Z" fill="#4A114A"/>
<defs>
<linearGradient id="paint0_linear_264_6242" x1="48.4882" y1="40.2153" x2="4.84982" y2="40.2153" gradientUnits="userSpaceOnUse">
<stop stop-color="#FDBD57"/>
<stop offset="0.0001" stop-color="#F38A2A"/>
<stop offset="1" stop-color="#EC6032"/>
</linearGradient>
<linearGradient id="paint1_linear_264_6242" x1="6" y1="57.502" x2="24.4276" y2="79.8576" gradientUnits="userSpaceOnUse">
<stop stop-color="#FDBD57"/>
<stop offset="0.0001" stop-color="#F38A2A"/>
<stop offset="1" stop-color="#EC6032"/>
</linearGradient>
</defs>
</svg>
